<?xml version="1.0" encoding="UTF-8" standalone="no"?><svg xmlns="http://www.w3.org/2000/svg" xmlns:xlink="http://www.w3.org/1999/xlink" contentScriptType="application/ecmascript" contentStyleType="text/css" height="84px" preserveAspectRatio="none" style="width:193px;height:84px;background:#FFFFFF;" version="1.1" viewBox="0 0 193 84" width="193px" zoomAndPan="magnify"><defs><filter height="300%" id="ffz4gcj78duf1" width="300%" x="-1" y="-1"><feGaussianBlur result="blurOut" stdDeviation="2.0"/><feColorMatrix in="blurOut" result="blurOut2" type="matrix" values="0 0 0 0 0 0 0 0 0 0 0 0 0 0 0 0 0 0 .4 0"/><feOffset dx="4.0" dy="4.0" in="blurOut2" result="blurOut3"/><feBlend in="SourceGraphic" in2="blurOut3" mode="normal"/></filter></defs><g><!--MD5=[6befd0934491d8a3abd15aff7ac8d4a2]
class movilidad--><a href="movilidad.html" target="_top" title="movilidad.html" xlink:actuate="onRequest" xlink:href="movilidad.html" xlink:show="new" xlink:title="movilidad.html" xlink:type="simple"><rect codeLine="5" fill="#FEFECE" filter="url(#ffz4gcj78duf1)" height="52.8047" id="movilidad" style="stroke:#A80036;stroke-width:1.5;" width="135" x="25.5" y="7"/><ellipse cx="60.75" cy="23" fill="#ADD1B2" rx="11" ry="11" style="stroke:#A80036;stroke-width:1.0;"/><path d="M63.7188,28.6406 Q63.1406,28.9375 62.5,29.0781 Q61.8594,29.2344 61.1563,29.2344 Q58.6563,29.2344 57.3281,27.5938 Q56.0156,25.9375 56.0156,22.8125 Q56.0156,19.6875 57.3281,18.0313 Q58.6563,16.375 61.1563,16.375 Q61.8594,16.375 62.5,16.5313 Q63.1563,16.6875 63.7188,16.9844 L63.7188,19.7031 Q63.0938,19.125 62.5,18.8594 Q61.9063,18.5781 61.2813,18.5781 Q59.9375,18.5781 59.25,19.6563 Q58.5625,20.7188 58.5625,22.8125 Q58.5625,24.9063 59.25,25.9844 Q59.9375,27.0469 61.2813,27.0469 Q61.9063,27.0469 62.5,26.7813 Q63.0938,26.5 63.7188,25.9219 L63.7188,28.6406 Z " fill="#000000"/><text fill="#000000" font-family="sans-serif" font-size="12" lengthAdjust="spacing" textLength="58" x="79.25" y="27.1543">movilidad</text><line style="stroke:#A80036;stroke-width:1.5;" x1="26.5" x2="159.5" y1="39" y2="39"/><ellipse cx="36.5" cy="50" fill="#84BE84" rx="3" ry="3" style="stroke:#038048;stroke-width:1.0;"/><text fill="#000000" font-family="sans-serif" font-size="11" lengthAdjust="spacing" text-decoration="underline" textLength="109" x="45.5" y="53.2104">main(String[]): void</text></a><text fill="#888888" font-family="sans-serif" font-size="10" lengthAdjust="spacing" textLength="186" x="0" y="76.0869">UMLDoclet 2.0.14, PlantUML 1.2021.9</text><!--MD5=[cfd277dc289786068343f552a0c65d3c]
@startuml
    set namespaceSeparator none
    hide empty fields
    hide empty methods

    class movilidad [[movilidad.html]] {
        {static} +main(String[]): void
    }

    center footer UMLDoclet 2.0.14, PlantUML 1.2021.9
@enduml

PlantUML version 1.2021.9(Sun Jul 25 12:13:56 CEST 2021)
(APACHE source distribution)
Java Runtime: OpenJDK Runtime Environment
JVM: OpenJDK 64-Bit Server VM
Default Encoding: UTF-8
Language: en
Country: US
--></g></svg>