<?xml version="1.0" encoding="UTF-8" standalone="no"?><svg xmlns="http://www.w3.org/2000/svg" xmlns:xlink="http://www.w3.org/1999/xlink" contentScriptType="application/ecmascript" contentStyleType="text/css" height="69px" preserveAspectRatio="none" style="width:193px;height:69px;background:#FFFFFF;" version="1.1" viewBox="0 0 193 69" width="193px" zoomAndPan="magnify"><defs><filter height="300%" id="f4e4wj85ho1uv" width="300%" x="-1" y="-1"><feGaussianBlur result="blurOut" stdDeviation="2.0"/><feColorMatrix in="blurOut" result="blurOut2" type="matrix" values="0 0 0 0 0 0 0 0 0 0 0 0 0 0 0 0 0 0 .4 0"/><feOffset dx="4.0" dy="4.0" in="blurOut2" result="blurOut3"/><feBlend in="SourceGraphic" in2="blurOut3" mode="normal"/></filter></defs><g><!--MD5=[4e2b6c39924fa9fae7672dbb7d5caef8]
class com.mobilityX.utils.Config--><a href="Config.html" target="_top" title="Config.html" xlink:actuate="onRequest" xlink:href="Config.html" xlink:show="new" xlink:title="Config.html" xlink:type="simple"><rect codeLine="5" fill="#FEFECE" filter="url(#f4e4wj85ho1uv)" height="37.9375" id="com.mobilityX.utils.Config" style="stroke:#A80036;stroke-width:1.5;" width="122" x="32" y="7"/><ellipse cx="47" cy="25.9688" fill="#ADD1B2" rx="11" ry="11" style="stroke:#A80036;stroke-width:1.0;"/><path d="M49.9688,31.6094 Q49.3906,31.9063 48.75,32.0469 Q48.1094,32.2031 47.4063,32.2031 Q44.9063,32.2031 43.5781,30.5625 Q42.2656,28.9063 42.2656,25.7813 Q42.2656,22.6563 43.5781,21 Q44.9063,19.3438 47.4063,19.3438 Q48.1094,19.3438 48.75,19.5 Q49.4063,19.6563 49.9688,19.9531 L49.9688,22.6719 Q49.3438,22.0938 48.75,21.8281 Q48.1563,21.5469 47.5313,21.5469 Q46.1875,21.5469 45.5,22.625 Q44.8125,23.6875 44.8125,25.7813 Q44.8125,27.875 45.5,28.9531 Q46.1875,30.0156 47.5313,30.0156 Q48.1563,30.0156 48.75,29.75 Q49.3438,29.4688 49.9688,28.8906 L49.9688,31.6094 Z " fill="#000000"/><text fill="#000000" font-family="sans-serif" font-size="14" lengthAdjust="spacing" textLength="44" x="84" y="24.9951">Config</text><text fill="#000000" font-family="sans-serif" font-size="10" lengthAdjust="spacing" textLength="90" x="61" y="37.5791">com.mobilityX.utils</text></a><text fill="#888888" font-family="sans-serif" font-size="10" lengthAdjust="spacing" textLength="186" x="0" y="61.2197">UMLDoclet 2.0.14, PlantUML 1.2021.9</text><!--MD5=[ecffbf4841c049e3ce64c755fbfb573f]
@startuml
    set namespaceSeparator none
    hide empty fields
    hide empty methods

    class "<size:14>Config\n<size:10>com.mobilityX.utils" as com.mobilityX.utils.Config [[Config.html]]

    center footer UMLDoclet 2.0.14, PlantUML 1.2021.9
@enduml

PlantUML version 1.2021.9(Sun Jul 25 12:13:56 CEST 2021)
(APACHE source distribution)
Java Runtime: OpenJDK Runtime Environment
JVM: OpenJDK 64-Bit Server VM
Default Encoding: UTF-8
Language: en
Country: US
--></g></svg>