<?xml version="1.0" encoding="UTF-8" standalone="no"?><svg xmlns="http://www.w3.org/2000/svg" xmlns:xlink="http://www.w3.org/1999/xlink" contentScriptType="application/ecmascript" contentStyleType="text/css" height="141px" preserveAspectRatio="none" style="width:438px;height:141px;background:#FFFFFF;" version="1.1" viewBox="0 0 438 141" width="438px" zoomAndPan="magnify"><defs><filter height="300%" id="f1dxieyqijfopv" width="300%" x="-1" y="-1"><feGaussianBlur result="blurOut" stdDeviation="2.0"/><feColorMatrix in="blurOut" result="blurOut2" type="matrix" values="0 0 0 0 0 0 0 0 0 0 0 0 0 0 0 0 0 0 .4 0"/><feOffset dx="4.0" dy="4.0" in="blurOut2" result="blurOut3"/><feBlend in="SourceGraphic" in2="blurOut3" mode="normal"/></filter></defs><g><!--MD5=[1f5551cfd1725b043aca558d40a67f80]
class com.mobilityX.services.StatsService--><a href="StatsService.html" target="_top" title="StatsService.html" xlink:actuate="onRequest" xlink:href="StatsService.html" xlink:show="new" xlink:title="StatsService.html" xlink:type="simple"><rect codeLine="5" fill="#FEFECE" filter="url(#f1dxieyqijfopv)" height="109.9609" id="com.mobilityX.services.StatsService" style="stroke:#A80036;stroke-width:1.5;" width="417" x="7" y="7"/><ellipse cx="156.25" cy="25.9688" fill="#ADD1B2" rx="11" ry="11" style="stroke:#A80036;stroke-width:1.0;"/><path d="M159.2188,31.6094 Q158.6406,31.9063 158,32.0469 Q157.3594,32.2031 156.6563,32.2031 Q154.1563,32.2031 152.8281,30.5625 Q151.5156,28.9063 151.5156,25.7813 Q151.5156,22.6563 152.8281,21 Q154.1563,19.3438 156.6563,19.3438 Q157.3594,19.3438 158,19.5 Q158.6563,19.6563 159.2188,19.9531 L159.2188,22.6719 Q158.5938,22.0938 158,21.8281 Q157.4063,21.5469 156.7813,21.5469 Q155.4375,21.5469 154.75,22.625 Q154.0625,23.6875 154.0625,25.7813 Q154.0625,27.875 154.75,28.9531 Q155.4375,30.0156 156.7813,30.0156 Q157.4063,30.0156 158,29.75 Q158.5938,29.4688 159.2188,28.8906 L159.2188,31.6094 Z " fill="#000000"/><text fill="#000000" font-family="sans-serif" font-size="14" lengthAdjust="spacing" textLength="85" x="189.25" y="24.9951">StatsService</text><text fill="#000000" font-family="sans-serif" font-size="10" lengthAdjust="spacing" textLength="110" x="176.75" y="37.5791">com.mobilityX.services</text><line style="stroke:#A80036;stroke-width:1.5;" x1="8" x2="423" y1="44.9375" y2="44.9375"/><ellipse cx="18" cy="55.9375" fill="#84BE84" rx="3" ry="3" style="stroke:#038048;stroke-width:1.0;"/><text fill="#000000" font-family="sans-serif" font-size="11" lengthAdjust="spacing" textLength="258" x="27" y="59.1479">basesPorDemanda(List&lt;Base&gt;): List&lt;Base&gt;</text><ellipse cx="18" cy="68.7422" fill="#84BE84" rx="3" ry="3" style="stroke:#038048;stroke-width:1.0;"/><text fill="#000000" font-family="sans-serif" font-size="11" lengthAdjust="spacing" textLength="391" x="27" y="71.9526">trabajadoresPorIntervenciones(List&lt;Trabajador&gt;): List&lt;Trabajador&gt;</text><ellipse cx="18" cy="81.5469" fill="#84BE84" rx="3" ry="3" style="stroke:#038048;stroke-width:1.0;"/><text fill="#000000" font-family="sans-serif" font-size="11" lengthAdjust="spacing" textLength="304" x="27" y="84.7573">vehiculosPorUso(List&lt;Base&gt;, String): List&lt;Vehiculo&gt;</text><ellipse cx="18" cy="94.3516" fill="#84BE84" rx="3" ry="3" style="stroke:#038048;stroke-width:1.0;"/><text fill="#000000" font-family="sans-serif" font-size="11" lengthAdjust="spacing" textLength="283" x="27" y="97.562">usuariosPorGasto(List&lt;Usuario&gt;): List&lt;Usuario&gt;</text><ellipse cx="18" cy="107.1563" fill="#84BE84" rx="3" ry="3" style="stroke:#038048;stroke-width:1.0;"/><text fill="#000000" font-family="sans-serif" font-size="11" lengthAdjust="spacing" textLength="282" x="27" y="110.3667">vehiculosReparados(List&lt;Base&gt;): List&lt;Vehiculo&gt;</text></a><text fill="#888888" font-family="sans-serif" font-size="10" lengthAdjust="spacing" textLength="186" x="122.5" y="133.2432">UMLDoclet 2.0.14, PlantUML 1.2021.9</text><!--MD5=[676bdb1978848832a1dfe6925c37eb89]
@startuml
    set namespaceSeparator none
    hide empty fields
    hide empty methods

    class "<size:14>StatsService\n<size:10>com.mobilityX.services" as com.mobilityX.services.StatsService [[StatsService.html]] {
        +basesPorDemanda(List<Base>): List<Base>
        +trabajadoresPorIntervenciones(List<Trabajador>): List<Trabajador>
        +vehiculosPorUso(List<Base>, String): List<Vehiculo>
        +usuariosPorGasto(List<Usuario>): List<Usuario>
        +vehiculosReparados(List<Base>): List<Vehiculo>
    }

    center footer UMLDoclet 2.0.14, PlantUML 1.2021.9
@enduml

PlantUML version 1.2021.9(Sun Jul 25 12:13:56 CEST 2021)
(APACHE source distribution)
Java Runtime: OpenJDK Runtime Environment
JVM: OpenJDK 64-Bit Server VM
Default Encoding: UTF-8
Language: en
Country: US
--></g></svg>