<?xml version="1.0" encoding="UTF-8" standalone="no"?><svg xmlns="http://www.w3.org/2000/svg" xmlns:xlink="http://www.w3.org/1999/xlink" contentScriptType="application/ecmascript" contentStyleType="text/css" height="205px" preserveAspectRatio="none" style="width:286px;height:205px;background:#FFFFFF;" version="1.1" viewBox="0 0 286 205" width="286px" zoomAndPan="magnify"><defs><filter height="300%" id="fr8p26054kjbu" width="300%" x="-1" y="-1"><feGaussianBlur result="blurOut" stdDeviation="2.0"/><feColorMatrix in="blurOut" result="blurOut2" type="matrix" values="0 0 0 0 0 0 0 0 0 0 0 0 0 0 0 0 0 0 .4 0"/><feOffset dx="4.0" dy="4.0" in="blurOut2" result="blurOut3"/><feBlend in="SourceGraphic" in2="blurOut3" mode="normal"/></filter></defs><g><!--MD5=[2753ea2156ba3a4c6911fa8137c5bf88]
class com.mobilityX.models.vehicle.Base--><a href="Base.html" target="_top" title="Base.html" xlink:actuate="onRequest" xlink:href="Base.html" xlink:show="new" xlink:title="Base.html" xlink:type="simple"><rect codeLine="5" fill="#FEFECE" filter="url(#fr8p26054kjbu)" height="173.9844" id="com.mobilityX.models.vehicle.Base" style="stroke:#A80036;stroke-width:1.5;" width="265" x="7" y="7"/><ellipse cx="64.25" cy="25.9688" fill="#ADD1B2" rx="11" ry="11" style="stroke:#A80036;stroke-width:1.0;"/><path d="M67.2188,31.6094 Q66.6406,31.9063 66,32.0469 Q65.3594,32.2031 64.6563,32.2031 Q62.1563,32.2031 60.8281,30.5625 Q59.5156,28.9063 59.5156,25.7813 Q59.5156,22.6563 60.8281,21 Q62.1563,19.3438 64.6563,19.3438 Q65.3594,19.3438 66,19.5 Q66.6563,19.6563 67.2188,19.9531 L67.2188,22.6719 Q66.5938,22.0938 66,21.8281 Q65.4063,21.5469 64.7813,21.5469 Q63.4375,21.5469 62.75,22.625 Q62.0625,23.6875 62.0625,25.7813 Q62.0625,27.875 62.75,28.9531 Q63.4375,30.0156 64.7813,30.0156 Q65.4063,30.0156 66,29.75 Q66.5938,29.4688 67.2188,28.8906 L67.2188,31.6094 Z " fill="#000000"/><text fill="#000000" font-family="sans-serif" font-size="14" lengthAdjust="spacing" textLength="35" x="138.25" y="24.9951">Base</text><text fill="#000000" font-family="sans-serif" font-size="10" lengthAdjust="spacing" textLength="142" x="84.75" y="37.5791">com.mobilityX.models.vehicle</text><line style="stroke:#A80036;stroke-width:1.5;" x1="8" x2="271" y1="44.9375" y2="44.9375"/><ellipse cx="18" cy="55.9375" fill="#84BE84" rx="3" ry="3" style="stroke:#038048;stroke-width:1.0;"/><text fill="#000000" font-family="sans-serif" font-size="11" lengthAdjust="spacing" textLength="137" x="27" y="59.1479">Base(String, int, int, int)</text><ellipse cx="18" cy="68.7422" fill="#84BE84" rx="3" ry="3" style="stroke:#038048;stroke-width:1.0;"/><text fill="#000000" font-family="sans-serif" font-size="11" lengthAdjust="spacing" textLength="78" x="27" y="71.9526">getId(): String</text><ellipse cx="18" cy="81.5469" fill="#84BE84" rx="3" ry="3" style="stroke:#038048;stroke-width:1.0;"/><text fill="#000000" font-family="sans-serif" font-size="11" lengthAdjust="spacing" textLength="55" x="27" y="84.7573">getX(): int</text><ellipse cx="18" cy="94.3516" fill="#84BE84" rx="3" ry="3" style="stroke:#038048;stroke-width:1.0;"/><text fill="#000000" font-family="sans-serif" font-size="11" lengthAdjust="spacing" textLength="55" x="27" y="97.562">getY(): int</text><ellipse cx="18" cy="107.1563" fill="#84BE84" rx="3" ry="3" style="stroke:#038048;stroke-width:1.0;"/><text fill="#000000" font-family="sans-serif" font-size="11" lengthAdjust="spacing" textLength="192" x="27" y="110.3667">tieneEspacioDisponible(): boolean</text><ellipse cx="18" cy="119.9609" fill="#84BE84" rx="3" ry="3" style="stroke:#038048;stroke-width:1.0;"/><text fill="#000000" font-family="sans-serif" font-size="11" lengthAdjust="spacing" textLength="200" x="27" y="123.1714">agregarVehiculo(Vehiculo): boolean</text><ellipse cx="18" cy="132.7656" fill="#84BE84" rx="3" ry="3" style="stroke:#038048;stroke-width:1.0;"/><text fill="#000000" font-family="sans-serif" font-size="11" lengthAdjust="spacing" textLength="191" x="27" y="135.9761">retirarVehiculo(Vehiculo): boolean</text><ellipse cx="18" cy="145.5703" fill="#84BE84" rx="3" ry="3" style="stroke:#038048;stroke-width:1.0;"/><text fill="#000000" font-family="sans-serif" font-size="11" lengthAdjust="spacing" textLength="239" x="27" y="148.7808">getVehiculosDisponibles(): List&lt;Vehiculo&gt;</text><ellipse cx="18" cy="158.375" fill="#84BE84" rx="3" ry="3" style="stroke:#038048;stroke-width:1.0;"/><text fill="#000000" font-family="sans-serif" font-size="11" lengthAdjust="spacing" textLength="173" x="27" y="161.5854">getVehiculos(): List&lt;Vehiculo&gt;</text><ellipse cx="18" cy="171.1797" fill="#84BE84" rx="3" ry="3" style="stroke:#038048;stroke-width:1.0;"/><text fill="#000000" font-family="sans-serif" font-size="11" lengthAdjust="spacing" textLength="102" x="27" y="174.3901">getDemanda(): int</text></a><text fill="#888888" font-family="sans-serif" font-size="10" lengthAdjust="spacing" textLength="186" x="46.5" y="197.2666">UMLDoclet 2.0.14, PlantUML 1.2021.9</text><!--MD5=[e55658ef063ba72f8e31f62f3d23f124]
@startuml
    set namespaceSeparator none
    hide empty fields
    hide empty methods

    class "<size:14>Base\n<size:10>com.mobilityX.models.vehicle" as com.mobilityX.models.vehicle.Base [[Base.html]] {
        +Base(String, int, int, int)
        +getId(): String
        +getX(): int
        +getY(): int
        +tieneEspacioDisponible(): boolean
        +agregarVehiculo(Vehiculo): boolean
        +retirarVehiculo(Vehiculo): boolean
        +getVehiculosDisponibles(): List<Vehiculo>
        +getVehiculos(): List<Vehiculo>
        +getDemanda(): int
    }

    center footer UMLDoclet 2.0.14, PlantUML 1.2021.9
@enduml

PlantUML version 1.2021.9(Sun Jul 25 12:13:56 CEST 2021)
(APACHE source distribution)
Java Runtime: OpenJDK Runtime Environment
JVM: OpenJDK 64-Bit Server VM
Default Encoding: UTF-8
Language: en
Country: US
--></g></svg>