<?xml version="1.0" encoding="UTF-8" standalone="no"?><svg xmlns="http://www.w3.org/2000/svg" xmlns:xlink="http://www.w3.org/1999/xlink" contentScriptType="application/ecmascript" contentStyleType="text/css" height="405px" preserveAspectRatio="none" style="width:306px;height:405px;background:#FFFFFF;" version="1.1" viewBox="0 0 306 405" width="306px" zoomAndPan="magnify"><defs><filter height="300%" id="f1o8ymokr9ygz4" width="300%" x="-1" y="-1"><feGaussianBlur result="blurOut" stdDeviation="2.0"/><feColorMatrix in="blurOut" result="blurOut2" type="matrix" values="0 0 0 0 0 0 0 0 0 0 0 0 0 0 0 0 0 0 .4 0"/><feOffset dx="4.0" dy="4.0" in="blurOut2" result="blurOut3"/><feBlend in="SourceGraphic" in2="blurOut3" mode="normal"/></filter></defs><g><!--MD5=[44ae94e9a9c0fa1b5563466b905976e0]
class com.mobilityX.models.vehicle.Vehiculo--><a href="Vehiculo.html" target="_top" title="Vehiculo.html" xlink:actuate="onRequest" xlink:href="Vehiculo.html" xlink:show="new" xlink:title="Vehiculo.html" xlink:type="simple"><rect codeLine="5" fill="#FEFECE" filter="url(#f1o8ymokr9ygz4)" height="374.0547" id="com.mobilityX.models.vehicle.Vehiculo" style="stroke:#A80036;stroke-width:1.5;" width="285" x="7" y="7"/><ellipse cx="74.25" cy="25.9688" fill="#ADD1B2" rx="11" ry="11" style="stroke:#A80036;stroke-width:1.0;"/><path d="M77.2188,31.6094 Q76.6406,31.9063 76,32.0469 Q75.3594,32.2031 74.6563,32.2031 Q72.1563,32.2031 70.8281,30.5625 Q69.5156,28.9063 69.5156,25.7813 Q69.5156,22.6563 70.8281,21 Q72.1563,19.3438 74.6563,19.3438 Q75.3594,19.3438 76,19.5 Q76.6563,19.6563 77.2188,19.9531 L77.2188,22.6719 Q76.5938,22.0938 76,21.8281 Q75.4063,21.5469 74.7813,21.5469 Q73.4375,21.5469 72.75,22.625 Q72.0625,23.6875 72.0625,25.7813 Q72.0625,27.875 72.75,28.9531 Q73.4375,30.0156 74.7813,30.0156 Q75.4063,30.0156 76,29.75 Q76.5938,29.4688 77.2188,28.8906 L77.2188,31.6094 Z " fill="#000000"/><text fill="#000000" font-family="sans-serif" font-size="14" lengthAdjust="spacing" textLength="59" x="136.25" y="24.9951">Vehiculo</text><text fill="#000000" font-family="sans-serif" font-size="10" lengthAdjust="spacing" textLength="142" x="94.75" y="37.5791">com.mobilityX.models.vehicle</text><line style="stroke:#A80036;stroke-width:1.5;" x1="8" x2="291" y1="44.9375" y2="44.9375"/><polygon fill="none" points="18,50.9375,22,54.9375,18,58.9375,14,54.9375" style="stroke:#B38D22;stroke-width:1.0;"/><text fill="#000000" font-family="sans-serif" font-size="11" lengthAdjust="spacing" textLength="52" x="27" y="59.1479">id: String</text><polygon fill="none" points="18,63.7422,22,67.7422,18,71.7422,14,67.7422" style="stroke:#B38D22;stroke-width:1.0;"/><text fill="#000000" font-family="sans-serif" font-size="11" lengthAdjust="spacing" textLength="111" x="27" y="71.9526">disponible: boolean</text><polygon fill="none" points="18,76.5469,22,80.5469,18,84.5469,14,80.5469" style="stroke:#B38D22;stroke-width:1.0;"/><text fill="#000000" font-family="sans-serif" font-size="11" lengthAdjust="spacing" textLength="62" x="27" y="84.7573">bateria: int</text><polygon fill="none" points="18,89.3516,22,93.3516,18,97.3516,14,93.3516" style="stroke:#B38D22;stroke-width:1.0;"/><text fill="#000000" font-family="sans-serif" font-size="11" lengthAdjust="spacing" textLength="28" x="27" y="97.562">x: int</text><polygon fill="none" points="18,102.1563,22,106.1563,18,110.1563,14,106.1563" style="stroke:#B38D22;stroke-width:1.0;"/><text fill="#000000" font-family="sans-serif" font-size="11" lengthAdjust="spacing" textLength="28" x="27" y="110.3667">y: int</text><polygon fill="none" points="18,114.9609,22,118.9609,18,122.9609,14,118.9609" style="stroke:#B38D22;stroke-width:1.0;"/><text fill="#000000" font-family="sans-serif" font-size="11" lengthAdjust="spacing" textLength="102" x="27" y="123.1714">averiado: boolean</text><polygon fill="none" points="18,127.7656,22,131.7656,18,135.7656,14,131.7656" style="stroke:#B38D22;stroke-width:1.0;"/><text fill="#000000" font-family="sans-serif" font-size="11" lengthAdjust="spacing" text-decoration="underline" textLength="199" x="27" y="135.9761">CONSUMO_BATERIA_POR_HORA: int</text><line style="stroke:#A80036;stroke-width:1.5;" x1="8" x2="291" y1="142.5703" y2="142.5703"/><ellipse cx="18" cy="153.5703" fill="#84BE84" rx="3" ry="3" style="stroke:#038048;stroke-width:1.0;"/><text fill="#000000" font-family="sans-serif" font-size="11" lengthAdjust="spacing" textLength="155" x="27" y="156.7808">Vehiculo(String, int, int, int)</text><ellipse cx="18" cy="166.375" fill="#84BE84" rx="3" ry="3" style="stroke:#038048;stroke-width:1.0;"/><text fill="#000000" font-family="sans-serif" font-size="11" lengthAdjust="spacing" textLength="78" x="27" y="169.5854">getId(): String</text><ellipse cx="18" cy="179.1797" fill="#84BE84" rx="3" ry="3" style="stroke:#038048;stroke-width:1.0;"/><text fill="#000000" font-family="sans-serif" font-size="11" lengthAdjust="spacing" textLength="89" x="27" y="182.3901">getBateria(): int</text><ellipse cx="18" cy="191.9844" fill="#84BE84" rx="3" ry="3" style="stroke:#038048;stroke-width:1.0;"/><text fill="#000000" font-family="sans-serif" font-size="11" lengthAdjust="spacing" textLength="55" x="27" y="195.1948">getX(): int</text><ellipse cx="18" cy="204.7891" fill="#84BE84" rx="3" ry="3" style="stroke:#038048;stroke-width:1.0;"/><text fill="#000000" font-family="sans-serif" font-size="11" lengthAdjust="spacing" textLength="55" x="27" y="207.9995">getY(): int</text><ellipse cx="18" cy="217.5938" fill="#84BE84" rx="3" ry="3" style="stroke:#038048;stroke-width:1.0;"/><text fill="#000000" font-family="sans-serif" font-size="11" lengthAdjust="spacing" textLength="147" x="27" y="220.8042">setUbicacion(int, int): void</text><ellipse cx="18" cy="230.3984" fill="#84BE84" rx="3" ry="3" style="stroke:#038048;stroke-width:1.0;"/><text fill="#000000" font-family="sans-serif" font-size="11" lengthAdjust="spacing" textLength="155" x="27" y="233.6089">necesitaRecarga(): boolean</text><ellipse cx="18" cy="243.2031" fill="#84BE84" rx="3" ry="3" style="stroke:#038048;stroke-width:1.0;"/><text fill="#000000" font-family="sans-serif" font-size="11" lengthAdjust="spacing" textLength="130" x="27" y="246.4136">isDisponible(): boolean</text><ellipse cx="18" cy="256.0078" fill="#84BE84" rx="3" ry="3" style="stroke:#038048;stroke-width:1.0;"/><text fill="#000000" font-family="sans-serif" font-size="11" lengthAdjust="spacing" textLength="161" x="27" y="259.2183">setDisponible(boolean): void</text><ellipse cx="18" cy="268.8125" fill="#84BE84" rx="3" ry="3" style="stroke:#038048;stroke-width:1.0;"/><text fill="#000000" font-family="sans-serif" font-size="11" lengthAdjust="spacing" textLength="148" x="27" y="272.0229">actualizarBateria(int): void</text><ellipse cx="18" cy="281.6172" fill="#84BE84" rx="3" ry="3" style="stroke:#038048;stroke-width:1.0;"/><text fill="#000000" font-family="sans-serif" font-size="11" lengthAdjust="spacing" textLength="180" x="27" y="284.8276">estaEnLimitesCiudad(): boolean</text><ellipse cx="18" cy="294.4219" fill="#84BE84" rx="3" ry="3" style="stroke:#038048;stroke-width:1.0;"/><text fill="#000000" font-family="sans-serif" font-size="11" lengthAdjust="spacing" textLength="120" x="27" y="297.6323">isAveriado(): boolean</text><ellipse cx="18" cy="307.2266" fill="#84BE84" rx="3" ry="3" style="stroke:#038048;stroke-width:1.0;"/><text fill="#000000" font-family="sans-serif" font-size="11" lengthAdjust="spacing" textLength="151" x="27" y="310.437">setAveriado(boolean): void</text><ellipse cx="18" cy="320.0313" fill="#84BE84" rx="3" ry="3" style="stroke:#038048;stroke-width:1.0;"/><text fill="#000000" font-family="sans-serif" font-size="11" lengthAdjust="spacing" textLength="112" x="27" y="323.2417">setBateria(int): void</text><ellipse cx="18" cy="332.8359" fill="#84BE84" rx="3" ry="3" style="stroke:#038048;stroke-width:1.0;"/><text fill="#000000" font-family="sans-serif" font-size="11" lengthAdjust="spacing" textLength="259" x="27" y="336.0464">getHistorialReparaciones(): List&lt;Reparacion&gt;</text><ellipse cx="18" cy="345.6406" fill="#84BE84" rx="3" ry="3" style="stroke:#038048;stroke-width:1.0;"/><text fill="#000000" font-family="sans-serif" font-size="11" lengthAdjust="spacing" textLength="232" x="27" y="348.8511">registrarReparacion(double, String): void</text><ellipse cx="18" cy="358.4453" fill="#84BE84" rx="3" ry="3" style="stroke:#038048;stroke-width:1.0;"/><text fill="#000000" font-family="sans-serif" font-size="11" lengthAdjust="spacing" textLength="194" x="27" y="361.6558">getTiempoUsoMinutosTotal(): long</text><ellipse cx="18" cy="371.25" fill="#84BE84" rx="3" ry="3" style="stroke:#038048;stroke-width:1.0;"/><text fill="#000000" font-family="sans-serif" font-size="11" lengthAdjust="spacing" textLength="148" x="27" y="374.4604">addTiempoUso(long): void</text></a><text fill="#888888" font-family="sans-serif" font-size="10" lengthAdjust="spacing" textLength="186" x="56.5" y="397.3369">UMLDoclet 2.0.14, PlantUML 1.2021.9</text><!--MD5=[af330fefc52f01c48a2a6c7038aa4039]
@startuml
    set namespaceSeparator none
    hide empty fields
    hide empty methods

    class "<size:14>Vehiculo\n<size:10>com.mobilityX.models.vehicle" as com.mobilityX.models.vehicle.Vehiculo [[Vehiculo.html]] {
        #id: String
        #disponible: boolean
        #bateria: int
        #x: int
        #y: int
        #averiado: boolean
        {static} #CONSUMO_BATERIA_POR_HORA: int
        +Vehiculo(String, int, int, int)
        +getId(): String
        +getBateria(): int
        +getX(): int
        +getY(): int
        +setUbicacion(int, int): void
        +necesitaRecarga(): boolean
        +isDisponible(): boolean
        +setDisponible(boolean): void
        +actualizarBateria(int): void
        +estaEnLimitesCiudad(): boolean
        +isAveriado(): boolean
        +setAveriado(boolean): void
        +setBateria(int): void
        +getHistorialReparaciones(): List<Reparacion>
        +registrarReparacion(double, String): void
        +getTiempoUsoMinutosTotal(): long
        +addTiempoUso(long): void
    }

    center footer UMLDoclet 2.0.14, PlantUML 1.2021.9
@enduml

PlantUML version 1.2021.9(Sun Jul 25 12:13:56 CEST 2021)
(APACHE source distribution)
Java Runtime: OpenJDK Runtime Environment
JVM: OpenJDK 64-Bit Server VM
Default Encoding: UTF-8
Language: en
Country: US
--></g></svg>